<mxfile host="65bd71144e">
    <diagram id="zSH7mGsscCFFlCTcNE_k" name="第 1 页">
        <mxGraphModel dx="1433" dy="1113" grid="1" gridSize="10" guides="1" tooltips="1" connect="1" arrows="1" fold="1" page="1" pageScale="1" pageWidth="827" pageHeight="1169" math="0" shadow="0">
            <root>
                <mxCell id="0"/>
                <mxCell id="1" parent="0"/>
                <mxCell id="34" value="LeNet" style="swimlane;labelBorderColor=none;" parent="1" vertex="1">
                    <mxGeometry x="200" y="20" width="640" height="600" as="geometry">
                        <mxRectangle x="90" y="350" width="140" height="30" as="alternateBounds"/>
                    </mxGeometry>
                </mxCell>
                <mxCell id="4" value="Conv2d&#10;5×5&#10;in_channels = 1&#10;out_channels = 6" style="rounded=0;labelBorderColor=none;" parent="34" vertex="1">
                    <mxGeometry x="70" y="31" width="140" height="80" as="geometry"/>
                </mxCell>
                <mxCell id="5" value="ReLU" style="rounded=0;labelBorderColor=none;" parent="34" vertex="1">
                    <mxGeometry x="270" y="41" width="120" height="60" as="geometry"/>
                </mxCell>
                <mxCell id="14" value="" style="edgeStyle=none;exitX=1;exitY=0.5;exitDx=0;exitDy=0;entryX=0;entryY=0.5;entryDx=0;entryDy=0;labelBorderColor=none;" parent="34" source="4" target="5" edge="1">
                    <mxGeometry relative="1" as="geometry"/>
                </mxCell>
                <mxCell id="39" value="6×28×28" style="edgeLabel;align=center;verticalAlign=middle;resizable=0;points=[];fontSize=8;labelBorderColor=default;" parent="14" vertex="1" connectable="0">
                    <mxGeometry x="-0.1979" relative="1" as="geometry">
                        <mxPoint as="offset"/>
                    </mxGeometry>
                </mxCell>
                <mxCell id="6" value="MaxPool2d&#10;2×2&#10;stride = 2" style="rounded=0;labelBorderColor=none;" parent="34" vertex="1">
                    <mxGeometry x="440" y="41" width="120" height="60" as="geometry"/>
                </mxCell>
                <mxCell id="15" value="" style="edgeStyle=none;exitX=1;exitY=0.5;exitDx=0;exitDy=0;entryX=0;entryY=0.5;entryDx=0;entryDy=0;labelBorderColor=none;" parent="34" source="5" target="6" edge="1">
                    <mxGeometry relative="1" as="geometry"/>
                </mxCell>
                <mxCell id="40" value="6×28×28" style="edgeLabel;align=center;verticalAlign=middle;resizable=0;points=[];fontSize=8;labelBorderColor=default;" parent="15" vertex="1" connectable="0">
                    <mxGeometry x="-0.2279" relative="1" as="geometry">
                        <mxPoint as="offset"/>
                    </mxGeometry>
                </mxCell>
                <mxCell id="7" value="Conv2d&#10;5×5&#10;in_channels = 6&#10;out_channels = 16" style="rounded=0;labelBorderColor=none;" parent="34" vertex="1">
                    <mxGeometry x="70" y="181" width="140" height="80" as="geometry"/>
                </mxCell>
                <mxCell id="20" value="" style="edgeStyle=none;exitX=1;exitY=0.5;exitDx=0;exitDy=0;entryX=0;entryY=0.5;entryDx=0;entryDy=0;rounded=0;labelBorderColor=none;" parent="34" source="6" target="7" edge="1">
                    <mxGeometry relative="1" as="geometry">
                        <Array as="points">
                            <mxPoint x="610" y="71"/>
                            <mxPoint x="610" y="141"/>
                            <mxPoint x="30" y="141"/>
                            <mxPoint x="30" y="221"/>
                        </Array>
                    </mxGeometry>
                </mxCell>
                <mxCell id="41" value="6×14×14" style="edgeLabel;align=center;verticalAlign=middle;resizable=0;points=[];fontSize=8;labelBorderColor=default;" parent="20" vertex="1" connectable="0">
                    <mxGeometry x="-0.0474" y="1" relative="1" as="geometry">
                        <mxPoint as="offset"/>
                    </mxGeometry>
                </mxCell>
                <mxCell id="8" value="ReLU" style="rounded=0;labelBorderColor=none;" parent="34" vertex="1">
                    <mxGeometry x="270" y="191" width="120" height="60" as="geometry"/>
                </mxCell>
                <mxCell id="16" value="" style="edgeStyle=none;exitX=1;exitY=0.5;exitDx=0;exitDy=0;entryX=0;entryY=0.5;entryDx=0;entryDy=0;labelBorderColor=none;" parent="34" source="7" target="8" edge="1">
                    <mxGeometry relative="1" as="geometry"/>
                </mxCell>
                <mxCell id="42" value="16×10×10" style="edgeLabel;align=center;verticalAlign=middle;resizable=0;points=[];fontSize=8;labelBorderColor=default;" parent="16" vertex="1" connectable="0">
                    <mxGeometry x="-0.3365" y="1" relative="1" as="geometry">
                        <mxPoint x="10" y="1" as="offset"/>
                    </mxGeometry>
                </mxCell>
                <mxCell id="9" value="MaxPool2d&#10;2×2&#10;stride = 2" style="rounded=0;labelBorderColor=none;" parent="34" vertex="1">
                    <mxGeometry x="440" y="191" width="120" height="60" as="geometry"/>
                </mxCell>
                <mxCell id="17" value="" style="edgeStyle=none;exitX=1;exitY=0.5;exitDx=0;exitDy=0;entryX=0;entryY=0.5;entryDx=0;entryDy=0;labelBorderColor=none;" parent="34" source="8" target="9" edge="1">
                    <mxGeometry relative="1" as="geometry"/>
                </mxCell>
                <mxCell id="43" value="16×10×10" style="edgeLabel;align=center;verticalAlign=middle;resizable=0;points=[];fontSize=8;labelBorderColor=default;" parent="17" vertex="1" connectable="0">
                    <mxGeometry x="0.3105" relative="1" as="geometry">
                        <mxPoint x="-13" as="offset"/>
                    </mxGeometry>
                </mxCell>
                <mxCell id="10" value="flatten" style="rounded=0;labelBorderColor=none;" parent="34" vertex="1">
                    <mxGeometry x="270" y="291" width="120" height="60" as="geometry"/>
                </mxCell>
                <mxCell id="23" value="" style="edgeStyle=none;rounded=0;exitX=1;exitY=0.5;exitDx=0;exitDy=0;entryX=0;entryY=0.5;entryDx=0;entryDy=0;labelBorderColor=none;" parent="34" source="9" target="10" edge="1">
                    <mxGeometry relative="1" as="geometry">
                        <Array as="points">
                            <mxPoint x="610" y="221"/>
                            <mxPoint x="610" y="271"/>
                            <mxPoint x="210" y="271"/>
                            <mxPoint x="210" y="321"/>
                        </Array>
                    </mxGeometry>
                </mxCell>
                <mxCell id="44" value="16×5×5" style="edgeLabel;align=center;verticalAlign=middle;resizable=0;points=[];fontSize=8;labelBorderColor=default;" parent="23" vertex="1" connectable="0">
                    <mxGeometry x="-0.1472" y="1" relative="1" as="geometry">
                        <mxPoint as="offset"/>
                    </mxGeometry>
                </mxCell>
                <mxCell id="11" value="Linear&#10;in_features = 400&#10;out_features = 120" style="rounded=0;labelBorderColor=none;" parent="34" vertex="1">
                    <mxGeometry x="80" y="401" width="120" height="60" as="geometry"/>
                </mxCell>
                <mxCell id="24" value="" style="edgeStyle=none;rounded=0;exitX=1;exitY=0.5;exitDx=0;exitDy=0;entryX=0;entryY=0.5;entryDx=0;entryDy=0;labelBorderColor=none;" parent="34" source="10" target="11" edge="1">
                    <mxGeometry relative="1" as="geometry">
                        <Array as="points">
                            <mxPoint x="430" y="321"/>
                            <mxPoint x="430" y="371"/>
                            <mxPoint x="40" y="371"/>
                            <mxPoint x="40" y="431"/>
                        </Array>
                    </mxGeometry>
                </mxCell>
                <mxCell id="45" value="400" style="edgeLabel;align=center;verticalAlign=middle;resizable=0;points=[];fontSize=8;labelBorderColor=default;" parent="24" vertex="1" connectable="0">
                    <mxGeometry x="-0.1278" y="-1" relative="1" as="geometry">
                        <mxPoint as="offset"/>
                    </mxGeometry>
                </mxCell>
                <mxCell id="12" value="Linear&#10;in_features = 120&#10;out_features = 84" style="rounded=0;labelBorderColor=none;" parent="34" vertex="1">
                    <mxGeometry x="80" y="511" width="120" height="60" as="geometry"/>
                </mxCell>
                <mxCell id="13" value="Linear&#10;in_features = 84&#10;out_features = 10" style="rounded=0;labelBorderColor=none;" parent="34" vertex="1">
                    <mxGeometry x="440" y="511" width="120" height="60" as="geometry"/>
                </mxCell>
                <mxCell id="28" value="" style="edgeStyle=none;rounded=0;exitX=1;exitY=0.5;exitDx=0;exitDy=0;entryX=0;entryY=0.5;entryDx=0;entryDy=0;labelBorderColor=none;" parent="34" source="18" target="12" edge="1">
                    <mxGeometry relative="1" as="geometry">
                        <Array as="points">
                            <mxPoint x="430" y="431"/>
                            <mxPoint x="430" y="481"/>
                            <mxPoint x="40" y="481"/>
                            <mxPoint x="40" y="541"/>
                        </Array>
                    </mxGeometry>
                </mxCell>
                <mxCell id="47" value="120" style="edgeLabel;align=center;verticalAlign=middle;resizable=0;points=[];fontSize=8;labelBorderColor=default;" parent="28" vertex="1" connectable="0">
                    <mxGeometry x="0.0397" relative="1" as="geometry">
                        <mxPoint as="offset"/>
                    </mxGeometry>
                </mxCell>
                <mxCell id="18" value="ReLU" style="rounded=0;labelBorderColor=none;" parent="34" vertex="1">
                    <mxGeometry x="270" y="401" width="120" height="60" as="geometry"/>
                </mxCell>
                <mxCell id="25" value="" style="edgeStyle=none;rounded=0;exitX=1;exitY=0.5;exitDx=0;exitDy=0;entryX=0;entryY=0.5;entryDx=0;entryDy=0;labelBorderColor=none;" parent="34" source="11" target="18" edge="1">
                    <mxGeometry relative="1" as="geometry"/>
                </mxCell>
                <mxCell id="46" value="120" style="edgeLabel;align=center;verticalAlign=middle;resizable=0;points=[];fontSize=8;labelBorderColor=default;" parent="25" vertex="1" connectable="0">
                    <mxGeometry x="-0.1728" y="1" relative="1" as="geometry">
                        <mxPoint as="offset"/>
                    </mxGeometry>
                </mxCell>
                <mxCell id="27" value="" style="edgeStyle=none;rounded=0;exitX=1;exitY=0.5;exitDx=0;exitDy=0;entryX=0;entryY=0.5;entryDx=0;entryDy=0;labelBorderColor=none;" parent="34" source="19" target="13" edge="1">
                    <mxGeometry relative="1" as="geometry"/>
                </mxCell>
                <mxCell id="49" value="84" style="edgeLabel;align=center;verticalAlign=middle;resizable=0;points=[];fontSize=8;labelBorderColor=default;" parent="27" vertex="1" connectable="0">
                    <mxGeometry x="-0.4705" y="1" relative="1" as="geometry">
                        <mxPoint x="7" y="1" as="offset"/>
                    </mxGeometry>
                </mxCell>
                <mxCell id="19" value="ReLU" style="rounded=0;labelBorderColor=none;" parent="34" vertex="1">
                    <mxGeometry x="270" y="511" width="120" height="60" as="geometry"/>
                </mxCell>
                <mxCell id="26" value="" style="edgeStyle=none;rounded=0;exitX=1;exitY=0.5;exitDx=0;exitDy=0;entryX=0;entryY=0.5;entryDx=0;entryDy=0;labelBorderColor=none;" parent="34" source="12" target="19" edge="1">
                    <mxGeometry relative="1" as="geometry"/>
                </mxCell>
                <mxCell id="48" value="84" style="edgeLabel;align=center;verticalAlign=middle;resizable=0;points=[];fontSize=8;labelBorderColor=default;" parent="26" vertex="1" connectable="0">
                    <mxGeometry x="-0.1864" relative="1" as="geometry">
                        <mxPoint as="offset"/>
                    </mxGeometry>
                </mxCell>
                <mxCell id="36" value="input" style="rounded=1;labelBorderColor=none;" parent="1" vertex="1">
                    <mxGeometry x="40" y="61" width="120" height="60" as="geometry"/>
                </mxCell>
                <mxCell id="32" value="" style="endArrow=classic;rounded=0;entryX=0;entryY=0.5;entryDx=0;entryDy=0;exitX=1;exitY=0.5;exitDx=0;exitDy=0;labelBorderColor=none;" parent="1" source="36" target="4" edge="1">
                    <mxGeometry width="50" height="50" relative="1" as="geometry">
                        <mxPoint x="170" y="91" as="sourcePoint"/>
                        <mxPoint x="405" y="341" as="targetPoint"/>
                    </mxGeometry>
                </mxCell>
                <mxCell id="38" value="1×32×32" style="edgeLabel;align=center;verticalAlign=middle;resizable=0;points=[];fontSize=8;labelBorderColor=default;" parent="32" vertex="1" connectable="0">
                    <mxGeometry x="0.1879" relative="1" as="geometry">
                        <mxPoint as="offset"/>
                    </mxGeometry>
                </mxCell>
                <mxCell id="37" value="output" style="rounded=1;labelBorderColor=none;" parent="1" vertex="1">
                    <mxGeometry x="900" y="531" width="120" height="60" as="geometry"/>
                </mxCell>
                <mxCell id="31" value="" style="edgeStyle=none;rounded=0;exitX=1;exitY=0.5;exitDx=0;exitDy=0;entryX=0;entryY=0.5;entryDx=0;entryDy=0;labelBorderColor=none;" parent="1" source="13" target="37" edge="1">
                    <mxGeometry relative="1" as="geometry">
                        <mxPoint x="895" y="560.6666666666667" as="targetPoint"/>
                    </mxGeometry>
                </mxCell>
                <mxCell id="50" value="10" style="edgeLabel;align=center;verticalAlign=middle;resizable=0;points=[];fontSize=8;labelBorderColor=default;" parent="31" vertex="1" connectable="0">
                    <mxGeometry x="-0.3143" relative="1" as="geometry">
                        <mxPoint as="offset"/>
                    </mxGeometry>
                </mxCell>
                <mxCell id="51" value="" style="endArrow=classic;html=1;entryX=0;entryY=0.5;entryDx=0;entryDy=0;" edge="1" parent="1" target="55">
                    <mxGeometry width="50" height="50" relative="1" as="geometry">
                        <mxPoint x="810" y="130" as="sourcePoint"/>
                        <mxPoint x="960" y="240" as="targetPoint"/>
                    </mxGeometry>
                </mxCell>
                <mxCell id="52" value="" style="endArrow=classic;html=1;entryX=0;entryY=0.5;entryDx=0;entryDy=0;" edge="1" parent="1" target="56">
                    <mxGeometry width="50" height="50" relative="1" as="geometry">
                        <mxPoint x="630" y="460" as="sourcePoint"/>
                        <mxPoint x="960" y="280" as="targetPoint"/>
                    </mxGeometry>
                </mxCell>
                <mxCell id="53" value="" style="endArrow=classic;html=1;entryX=0;entryY=0.5;entryDx=0;entryDy=0;" edge="1" parent="1" target="57">
                    <mxGeometry width="50" height="50" relative="1" as="geometry">
                        <mxPoint x="850" y="560" as="sourcePoint"/>
                        <mxPoint x="960" y="320" as="targetPoint"/>
                    </mxGeometry>
                </mxCell>
                <mxCell id="55" value="conv feature" style="ellipse;" vertex="1" parent="1">
                    <mxGeometry x="990" y="160" width="120" height="80" as="geometry"/>
                </mxCell>
                <mxCell id="56" value="fully connected &#10;feature" style="ellipse;" vertex="1" parent="1">
                    <mxGeometry x="990" y="260" width="120" height="80" as="geometry"/>
                </mxCell>
                <mxCell id="57" value="final feature" style="ellipse;" vertex="1" parent="1">
                    <mxGeometry x="990" y="360" width="120" height="80" as="geometry"/>
                </mxCell>
            </root>
        </mxGraphModel>
    </diagram>
</mxfile>